<svg width="304" height="59" viewBox="0 0 304 59" fill="none" xmlns="http://www.w3.org/2000/svg">
<path d="M262.373 58.9586C275.874 58.9586 289.175 59.4043 298.229 47.2275C308.486 33.3892 304.319 12.9662 289.496 4.33498C278.719 -1.92567 262.593 0.444867 250.634 0.444867C199.814 0.444867 148.994 0.444867 98.1534 0.444867C78.4423 0.444867 58.7312 0.444867 39.02 0.444867C35.6748 0.444867 32.3295 0.363823 28.9842 0.444867C12.9589 0.789304 -0.402205 13.8982 0.018459 30.3906C0.419092 46.3968 13.5198 58.6344 29.0844 58.9383C33.1908 59.0194 37.2973 58.9383 41.3838 58.9383C63.2383 58.9383 85.0928 58.9383 106.947 58.9383C151.197 58.9383 195.467 58.9383 239.717 58.9383C240.598 58.9383 241.48 58.9383 242.361 58.9383C244.945 58.9383 244.945 54.8861 242.361 54.8861C207.125 54.8861 171.89 54.8861 136.654 54.8861C100.778 54.8861 64.8408 55.6358 28.9642 54.8861C8.55193 54.4809 -3.6273 30.2285 9.57355 13.8171C15.3427 6.64473 23.5156 4.49706 32.1692 4.49706C46.9726 4.49706 61.776 4.49706 76.5794 4.49706C126.318 4.49706 176.076 4.49706 225.815 4.49706C241.079 4.49706 256.323 4.49706 271.587 4.49706C279.88 4.49706 287.713 6.23951 293.602 12.8243C308.065 29.0331 295.986 54.3796 275.053 54.9064C270.846 55.0077 266.619 54.9064 262.393 54.9064C259.789 54.9064 259.789 58.9586 262.373 58.9586Z" fill="#0E0E3A"/>
<path d="M286.813 43.4396C282.746 46.8839 277.839 48.829 272.53 49.1329C269.986 49.2747 269.966 53.3067 272.53 53.1446C278.94 52.7799 284.689 50.4499 289.617 46.2761C291.6 44.6147 288.776 41.7782 286.813 43.4396Z" fill="#0E0E3A"/>
<path d="M6.91084 28.6086C7.73213 38.0097 15.9651 48.9304 25.5603 50.0042C28.1043 50.2879 28.0843 46.2762 25.5603 45.9925C21.2535 45.5063 18.1085 42.4874 15.7047 39.0633C13.5613 35.9836 11.2176 32.4177 10.8771 28.6086C10.6567 26.0557 6.67046 26.0152 6.91084 28.6086Z" fill="#0E0E3A"/>
<path d="M35.2956 50.6728C37.6994 50.6728 40.1032 50.6728 42.507 50.6728C45.071 50.6728 45.071 46.6611 42.507 46.6611C40.1032 46.6611 37.6994 46.6611 35.2956 46.6611C32.7315 46.6611 32.7315 50.6728 35.2956 50.6728Z" fill="#0E0E3A"/>
<path d="M293.283 31.5261C293.283 31.8908 293.283 32.2555 293.283 32.6202C293.283 35.2136 297.249 35.2136 297.249 32.6202C297.249 32.2555 297.249 31.8908 297.249 31.5261C297.249 28.9327 293.283 28.9327 293.283 31.5261Z" fill="#0E0E3A"/>
</svg>
